<svg xmlns="http://www.w3.org/2000/svg" viewBox="0 0 1500 262" role="img" aria-labelledby="title desc">
  <title id="title">Project Find Rocky banner</title>
  <desc id="desc">A rainbow burst banner for the CipherStick Project Find Rocky challenge.</desc>
  <defs>
    <radialGradient id="flash" cx="50%" cy="50%" r="50%">
      <stop offset="0%" stop-color="#ffffff" />
      <stop offset="11%" stop-color="#fff9f9" />
      <stop offset="21%" stop-color="#f4b4d4" />
      <stop offset="32%" stop-color="#f6ca6a" />
      <stop offset="45%" stop-color="#ea5e20" />
      <stop offset="62%" stop-color="#08d8ff" />
      <stop offset="78%" stop-color="#0e5fe3" />
      <stop offset="100%" stop-color="#04070c" />
    </radialGradient>
  </defs>

  <rect width="1500" height="262" fill="#04070c" />
  <g opacity="0.98">
    <polygon points="760,131 0,96 0,164" fill="#d81313" />
    <polygon points="760,131 0,0 330,0" fill="#7f3308" />
    <polygon points="760,131 360,0 690,0" fill="#617415" />
    <polygon points="760,131 720,0 915,0" fill="#2ecb83" />
    <polygon points="760,131 990,0 1500,0 1500,44" fill="#003427" />
    <polygon points="760,131 1500,96 1500,166" fill="#00d7ff" />
    <polygon points="760,131 1320,262 1500,262 1500,204" fill="#0342b5" />
    <polygon points="760,131 960,262 1160,262" fill="#b6b7ef" />
    <polygon points="760,131 660,262 900,262" fill="#b264d3" />
    <polygon points="760,131 450,262 620,262" fill="#5d125a" />
  </g>
  <circle cx="760" cy="131" r="122" fill="url(#flash)" opacity="0.98" />
  <circle cx="760" cy="131" r="178" fill="url(#flash)" opacity="0.18" />

  <g transform="translate(58 42)">
    <g transform="rotate(-8 112 84)">
      <rect x="16" y="6" width="170" height="170" rx="20" fill="#252525" stroke="#080808" stroke-width="4"/>
      <rect x="114" y="-8" width="52" height="42" rx="4" fill="#efefef" stroke="#080808" stroke-width="4"/>
      <rect x="129" y="5" width="18" height="15" fill="#4a4a4a"/>
      <circle cx="114" cy="84" r="56" fill="#e7e8ef" stroke="#080808" stroke-width="4"/>
      <circle cx="114" cy="84" r="42" fill="#a5e0e5"/>
      <path d="M84 62q18-16 40-18" stroke="#ffffff" stroke-opacity=".35" stroke-width="5" fill="none"/>
      <rect x="146" y="126" width="38" height="90" rx="10" fill="#171717" stroke="#080808" stroke-width="4"/>
    </g>
  </g>

  <text x="458" y="82" fill="#000000" font-family="Arial, Helvetica, sans-serif" font-size="64" font-weight="700">
    CIPHERSTICK: EXTREME
  </text>
  <text x="458" y="188" fill="#000000" font-family="Arial, Helvetica, sans-serif" font-size="68" font-weight="400">
    Project Find Rocky
  </text>
</svg>
